<svg xmlns="http://www.w3.org/2000/svg" viewBox="0 0 48 48" width="48" height="48">
  <rect width="48" height="48" rx="10" fill="#f1f3f7"/>
  <!-- Women's Jacket Outline -->
  <path d="M15 13 L20 12 L24 16 L28 12 L33 13 L38 22 L34 24 L32 20 L32 36 C32 36.8 31.2 37 30.5 37 L17.5 37 C16.8 37 16 36.8 16 36 L16 20 L14 24 L10 22 Z" fill="#18181b" stroke="#27272a" stroke-width="0.5"/>
  <!-- Collar & Lapels -->
  <path d="M20 12 L24 23 L28 12" fill="#27272a" stroke="#3f3f46" stroke-width="0.8"/>
  <!-- Center Zipper -->
  <line x1="24" y1="23" x2="24" y2="37" stroke="#52525b" stroke-width="1.2" stroke-dasharray="1.5 1"/>
  <!-- Pockets -->
  <line x1="18" y1="28" x2="21" y2="29" stroke="#52525b" stroke-width="1"/>
  <line x1="30" y1="28" x2="27" y2="29" stroke="#52525b" stroke-width="1"/>
</svg>
