<svg xmlns="http://www.w3.org/2000/svg" viewBox="0 0 100 100" width="100" height="100">
  <defs>
    <clipPath id="wjClip">
      <rect width="100" height="100" rx="12" />
    </clipPath>
    <linearGradient id="wjBg" x1="0%" y1="0%" x2="100%" y2="100%">
      <stop offset="0%" stop-color="#f8fafc" />
      <stop offset="100%" stop-color="#f1f5f9" />
    </linearGradient>
  </defs>
  <g clip-path="url(#wjClip)">
    <rect width="100" height="100" fill="url(#wjBg)" />
    <!-- Pinkish Peach Blazer Jacket -->
    <path d="M12 100 C12 76 26 68 50 68 C74 68 88 76 88 100 Z" fill="#e2c8c4" />
    <!-- Inner White Top -->
    <path d="M42 68 L50 82 L58 68 Z" fill="#ffffff" />
    <!-- Lapels -->
    <polygon points="30,68 44,88 48,68" fill="#d1b1ac" />
    <polygon points="70,68 56,88 52,68" fill="#d1b1ac" />
    <!-- Neck -->
    <path d="M44 54 L56 54 L56 70 L44 70 Z" fill="#f8cbb8" />
    <!-- Long Dark Hair Back -->
    <path d="M30 40 C28 65 32 85 36 90 L38 65 L62 65 L64 90 C68 85 72 65 70 40 Z" fill="#292524" />
    <!-- Face -->
    <ellipse cx="50" cy="44" rx="14" ry="17" fill="#fed7aa" />
    <!-- Hair Front / Bangs -->
    <path d="M34 40 C34 24 66 24 66 40 C62 30 52 30 50 36 C48 30 38 30 34 40 Z" fill="#292524" />
    <!-- Eyes and Brows -->
    <path d="M42 38 L47 38" stroke="#292524" stroke-width="1.4" stroke-linecap="round" />
    <path d="M53 38 L58 38" stroke="#292524" stroke-width="1.4" stroke-linecap="round" />
    <circle cx="44.5" cy="42" r="1.3" fill="#292524" />
    <circle cx="55.5" cy="42" r="1.3" fill="#292524" />
    <!-- Cheeks Blush -->
    <circle cx="40" cy="47" r="3" fill="#fca5a5" opacity="0.4" />
    <circle cx="60" cy="47" r="3" fill="#fca5a5" opacity="0.4" />
    <!-- Nose and Smile -->
    <path d="M50 42 L49.5 47 L51.5 47" stroke="#e09f80" stroke-width="1" fill="none" />
    <path d="M47 52 C49 54 51 54 53 52" stroke="#e11d48" stroke-width="1.4" stroke-linecap="round" fill="none" />
  </g>
</svg>
